<?xml version="1.0" encoding="UTF-8"?>
<svg width="50px" height="50px" viewBox="0 0 50 50" version="1.1" xmlns="http://www.w3.org/2000/svg" xmlns:xlink="http://www.w3.org/1999/xlink">
    <title>Icon/01 Standard/Social/Facebook 3</title>
    <g id="Global-Footer" stroke="none" stroke-width="1" fill="none" fill-rule="evenodd">
        <g id="Footer/2-Basement/1-xLarge" transform="translate(-1128.000000, -118.000000)" fill="#FFFFFF">
            <g id="main" transform="translate(65.000000, 80.000000)">
                <g id="Follow-Us-group" transform="translate(916.000000, 0.000000)">
                    <g id="Icons" transform="translate(0.000000, 35.000000)">
                        <g id="Icon/01-Standard/Social/Facebook" transform="translate(147.500000, 3.500000)">
                            <path d="M24.5,0 C38.0309764,0 49,10.9690236 49,24.5 C49,38.0309764 38.0309764,49 24.5,49 C10.9690236,49 0,38.0309764 0,24.5 C0,10.9690236 10.9690236,0 24.5,0 Z M17.6425,18.9308327 L11.8375,18.9308327 L11.8375,37.625 L17.6425,37.625 L17.6425,18.9308327 Z M32.42,18.4620722 C29.595625,18.4620722 27.7025,20.0121068 26.9275,21.4808896 L26.84625,21.4808896 L26.84625,18.9308327 L21.27875,18.9308327 L21.27875,37.625 L27.0775,37.625 L27.0775,28.3685434 C27.0775,25.930989 27.54,23.5746864 30.558125,23.5746864 C33.5325,23.5746864 33.57625,26.3559984 33.57625,28.5247969 L33.57625,37.625 L39.375,37.625 L39.375,27.3560208 C39.375,22.3309086 38.295,18.4620722 32.42,18.4620722 Z M14.736875,9.625 C12.8801627,9.625 11.375,11.1301963 11.375,12.98695 C11.375,14.8432414 12.880625,16.3807758 14.736875,16.3807758 C16.5925,16.3807758 18.09875,14.8432414 18.09875,12.98695 C18.09875,11.1301963 16.5935873,9.625 14.736875,9.625 Z" id="Combined-Shape"></path>
                        </g>
                    </g>
                </g>
            </g>
        </g>
    </g>
</svg>