<?xml version="1.0" encoding="UTF-8"?>
<svg width="50px" height="50px" viewBox="0 0 50 50" version="1.1" xmlns="http://www.w3.org/2000/svg" xmlns:xlink="http://www.w3.org/1999/xlink">
    <title>Icon/01 Standard/Social/Facebook 2</title>
    <defs>
        <path d="M24.5,0 C38.0309764,0 49,10.9690236 49,24.5 C49,38.0309764 38.0309764,49 24.5,49 C10.9690236,49 0,38.0309764 0,24.5 C0,10.9690236 10.9690236,0 24.5,0 Z M30.90675,14.02625 C27.64825,14.02625 25.00225,16.67225 25.00225,19.93075 C25.00225,20.39625 25.05125,20.8495 25.1615,21.27825 C20.24925,21.03325 15.9005,18.68125 12.985,15.10425 C12.48275,15.974 12.18875,16.99075 12.18875,18.06875 C12.18875,20.1145 13.23,21.9275 14.8225,22.981 C13.85475,22.9565 12.94825,22.687 12.152,22.246 L12.152,22.3195 C12.152,25.186 14.1855,27.5625 16.89275,28.11375 C16.40275,28.2485 15.876,28.322 15.337,28.322 C14.95725,28.322 14.58975,28.28525 14.22225,28.21175 C14.9695,30.56375 17.15,32.2665 19.73475,32.3155 C17.7135,33.89575 15.1655,34.839 12.397,34.839 C11.91925,34.839 11.45375,34.8145 10.98825,34.75325 C13.573,36.44375 16.6845,37.42375 20.0165,37.42375 C30.88225,37.42375 36.8235,28.42 36.8235,20.61675 C36.8235,20.3595 36.8235,20.10225 36.81125,19.85725 C37.96275,19.02425 38.96725,17.983 39.7635,16.79475 C38.71,17.26025 37.57075,17.57875 36.37025,17.72575 C37.59525,16.99075 38.52625,15.83925 38.96725,14.455 C37.828,15.12875 36.56625,15.61875 35.21875,15.88825 C34.14075,14.73675 32.6095,14.02625 30.90675,14.02625 Z" id="path-1"></path>
    </defs>
    <g id="Global-Footer" stroke="none" stroke-width="1" fill="none" fill-rule="evenodd">
        <g id="Footer/2-Basement/1-xLarge" transform="translate(-1056.000000, -118.000000)">
            <g id="main" transform="translate(65.000000, 80.000000)">
                <g id="Follow-Us-group" transform="translate(916.000000, 0.000000)">
                    <g id="Icons" transform="translate(0.000000, 35.000000)">
                        <g id="Icon/01-Standard/Social/Facebook" transform="translate(75.500000, 3.500000)">
                            <mask id="mask-2" fill="white">
                                <use xlink:href="#path-1"></use>
                            </mask>
                            <use id="Combined-Shape" fill="#FFFFFF" xlink:href="#path-1"></use>
                        </g>
                    </g>
                </g>
            </g>
        </g>
    </g>
</svg>