<?xml version="1.0" encoding="UTF-8"?>
<svg width="88px" height="88px" viewBox="0 0 88 88" version="1.1" xmlns="http://www.w3.org/2000/svg" xmlns:xlink="http://www.w3.org/1999/xlink">
    <title>Logo/Icon/bdt-icon-official</title>
    <defs>
        <linearGradient x1="50%" y1="0%" x2="50%" y2="100%" id="linearGradient-1">
            <stop stop-color="#A2BC52" offset="0%"></stop>
            <stop stop-color="#839852" offset="100%"></stop>
        </linearGradient>
    </defs>
    <g id="Logo/Icon/bdt-icon-official" stroke="none" stroke-width="1" fill="none" fill-rule="evenodd">
        <path d="M75.268657,12.8 C78.033154,15.564497 82.3616747,15.564497 85.1261717,12.8 C87.7694852,10.1566864 87.8906687,5.70698224 85.1261717,2.94248521 C82.3616747,0.177988165 77.9157575,0.299171597 75.268657,2.94248521 C72.5041598,5.71076923 72.5041598,10.035503 75.268657,12.8 L75.268657,12.8 Z" id="Path" fill="#152E5F" fill-rule="nonzero"></path>
        <path d="M47.8660533,7.99431952 C64.9339824,9.67952663 78.5141007,23.2596449 80.1993078,40.327574 C84.8875919,33.715503 85.9668817,25.1834319 82.8426214,17.7306509 C79.3585977,18.8137278 75.5110238,17.8518344 72.8677101,15.2047337 C70.341793,12.6826035 69.3798994,8.83502959 70.341793,5.22982249 C62.7678285,2.22295858 54.3569409,3.18485207 47.8660533,7.99431952 L47.8660533,7.99431952 Z" id="Path" fill="#152E5F" fill-rule="nonzero"></path>
        <path d="M8.08001783,40.327574 C9.76143796,23.2596449 23.3453433,9.67952663 40.4132722,7.99431952 C33.8012012,3.3060355 25.2691303,2.22674556 17.8163492,5.35100591 C18.8994261,8.83502959 17.9375326,12.6826035 15.2904321,15.3259172 C12.7683019,17.8480474 8.9207279,18.8099409 5.3155208,17.8480474 C2.30865689,25.4220118 3.27055038,33.8366863 8.08001783,40.327574 L8.08001783,40.327574 Z" id="Path" fill="#152E5F" fill-rule="nonzero"></path>
        <path d="M12.8856983,12.9211834 C15.6501954,10.1566864 15.6501954,5.82816568 12.8856983,3.06366864 C10.2423847,0.42035503 5.79268055,0.299171597 3.02818352,3.06366864 C0.263686476,5.82816568 0.384869908,10.2740828 3.02818352,12.9211834 C5.79646754,15.6856805 10.1212013,15.6856805 12.8856983,12.9211834 L12.8856983,12.9211834 Z" id="Path" fill="#152E5F" fill-rule="nonzero"></path>
        <path d="M22.2622663,22.0553846 C34.282148,10.035503 53.9933906,10.035503 66.1344557,22.1765681 C78.1543373,34.1964497 78.1543373,53.9076923 66.1344557,65.927574 C53.9933906,78.0686391 34.282148,78.0686391 22.1410829,65.927574 C10.1212013,53.9076923 10.1212013,34.1964497 22.2622663,22.0553846 Z M59.7647515,28.5462721 C51.1114971,19.8930177 37.1678285,19.8930177 28.6357575,28.4288758 C19.9787161,37.0821302 19.9787161,51.0257988 28.514574,59.5578698 C37.1678285,68.2111242 51.1114971,68.2111242 59.6435682,59.6790532 C68.2968226,51.0220118 68.2968226,37.0821302 59.7647515,28.5462721 Z M44.1396628,26.7815384 C53.5706687,26.7815384 61.2324038,34.3398043 61.4089757,43.7294659 L61.4120889,44.0539646 C61.4120889,53.4849704 53.8538229,61.1467054 44.4641614,61.3196179 L44.1396628,61.3226035 C34.5964675,61.3226035 26.8672368,53.5933728 26.8672368,44.0539646 C26.8672368,34.6229585 34.4255027,26.9612235 43.8151642,26.7846517 L44.1396628,26.7815384 Z M44.1396628,30.8449704 C36.842148,30.8563314 30.9420296,36.7564497 30.9306687,44.0539646 C30.9418673,51.2434962 36.6784546,57.0789515 43.8279385,57.2587195 L44.1396628,57.2629586 C51.3291945,57.2517599 57.1646497,51.5151727 57.3444178,44.3656888 L57.348657,44.0539646 C57.3337253,36.8644328 51.6007644,31.025298 44.4513848,30.8490518 L44.1396628,30.8449704 Z" id="Combined-Shape" fill="url(#linearGradient-1)" fill-rule="nonzero"></path>
        <path d="M80.1993078,47.7803551 C78.5141007,64.848284 64.9339824,78.4321893 47.8660533,80.1136095 C54.4743373,84.8018935 63.0101954,85.8849704 70.4629764,82.756923 C69.3798994,79.2691125 70.341793,75.4253255 72.9888936,72.7820118 C75.5110238,70.2598816 79.3585977,69.2942012 82.9638049,70.2598816 C85.9668817,62.6821302 85.0049882,54.2674556 80.1993078,47.7803551 L80.1993078,47.7803551 Z" id="Path" fill="#152E5F" fill-rule="nonzero"></path>
        <path d="M75.3898403,75.1829586 C72.6253433,77.9474556 72.6253433,82.2759763 75.3898403,85.0404734 C78.033154,87.683787 82.482858,87.8049704 85.2473551,85.0404734 C88.0118522,82.2759763 87.8906687,77.8262721 85.2473551,75.1829586 C82.482858,72.4184616 78.1543373,72.4184616 75.3898403,75.1829586 L75.3898403,75.1829586 Z" id="Path" fill="#152E5F" fill-rule="nonzero"></path>
        <path d="M40.4132722,80.1098225 C23.3453433,78.4284023 9.76143796,64.844497 8.08001783,47.7765681 C3.39173381,54.3886391 2.31244387,62.92071 5.43670423,70.3734911 C8.9207279,69.2904142 12.7683019,70.2523077 15.4116154,72.8956213 C17.9375326,75.4215384 18.8956391,79.2653255 17.9337456,82.8743195 C25.5077101,85.8811834 33.9223847,84.91929 40.4132722,80.1098225 L40.4132722,80.1098225 Z" id="Path" fill="#152E5F" fill-rule="nonzero"></path>
        <path d="M13.0068817,85.1578698 C15.7713787,82.3933728 15.7713787,78.0648521 13.0068817,75.304142 C10.2423847,72.5396449 5.91386399,72.5396449 3.14936695,75.304142 C0.506053341,77.9474556 0.384869908,82.3971598 3.14936695,85.1578698 C5.91386399,87.9261539 10.3635681,87.8049704 13.0068817,85.1578698 L13.0068817,85.1578698 Z" id="Path" fill="#152E5F" fill-rule="nonzero"></path>
    </g>
</svg>