<?xml version="1.0" encoding="UTF-8"?>
<svg width="256px" height="256px" viewBox="0 0 256 256" version="1.1" xmlns="http://www.w3.org/2000/svg" xmlns:xlink="http://www.w3.org/1999/xlink">
    <title>Icon/02 Isometric/Process &amp; Journey/Assess-Eligibilty</title>
    <defs>
        <polygon id="path-1" points="0.256 0.256 0.768 0.256 0.768 0.768 0.256 0.768"></polygon>
    </defs>
    <g id="Icon/02-Isometric/Process-&amp;-Journey/Assess-Eligibilty" stroke="none" stroke-width="1" fill="none" fill-rule="evenodd">
        <g id="Group-54" transform="translate(61.440000, 39.936000)">
            <path d="M11.052544,172.136938 L124.381696,111.397354 C130.228736,108.263914 133.805568,102.481386 133.75491,96.2452259 L133.222912,4.7764259 C133.192192,1.0920739 128.860672,-1.1924701 125.4016,0.6527779 L12.225024,61.0114339 C6.385152,64.1254179 2.797056,69.8802979 2.81643328,76.0990499 L3.011072,167.884266 C3.022336,171.683306 7.490048,174.045674 11.052544,172.136938" id="Fill-1" fill="#FFFFFF"></path>
            <path d="M11.052544,172.136938 L124.381696,111.397354 C130.228736,108.263914 133.805568,102.481386 133.75491,96.2452259 L133.222912,4.7764259 C133.192192,1.0920739 128.860672,-1.1924701 125.4016,0.6527779 L12.225024,61.0114339 C6.385152,64.1254179 2.797056,69.8802979 2.81643328,76.0990499 L3.011072,167.884266 C3.022336,171.683306 7.490048,174.045674 11.052544,172.136938 Z" id="Stroke-3" stroke="#152E5F" stroke-width="5.12" stroke-linecap="round" stroke-linejoin="round"></path>
            <path d="M29.7490432,66.3339811 C29.5196672,66.9565731 28.8673792,67.3149731 28.2908672,67.1347491 C27.7143552,66.9545251 27.4327552,66.3042851 27.6611072,65.6806691 C27.8904832,65.0580771 28.5437952,64.6986531 29.1203072,64.8799011 C29.6968192,65.0601251 29.9784192,65.7113891 29.7490432,66.3339811" id="Fill-5" fill="#FFFFFF"></path>
            <path d="M29.7490432,66.3339811 C29.5196672,66.9565731 28.8673792,67.3149731 28.2908672,67.1347491 C27.7143552,66.9545251 27.4327552,66.3042851 27.6611072,65.6806691 C27.8904832,65.0580771 28.5437952,64.6986531 29.1203072,64.8799011 C29.6968192,65.0601251 29.9784192,65.7113891 29.7490432,66.3339811 Z" id="Stroke-7" stroke="#152E5F" stroke-width="5.12" stroke-linecap="round" stroke-linejoin="round"></path>
            <g id="Group-12" transform="translate(4.012954, 22.874295)">
                <line x1="6.82121026e-15" y1="69.146624" x2="128.560128" y2="0" id="Fill-9" fill="#FFFFFF"></line>
                <line x1="6.82121026e-15" y1="69.146624" x2="128.560128" y2="0" id="Stroke-11" stroke="#152E5F" stroke-width="5.12" stroke-linecap="round" stroke-linejoin="round"></line>
            </g>
            <polygon id="Fill-13" fill="#FFFFFF" points="78.6835456 157.608938 78.6835456 102.134762 120.731034 135.454698 108.717466 140.99249 120.731034 166.757354 105.71305 174.224362 93.7005056 149.301226"></polygon>
            <polygon id="Stroke-15" stroke="#152E5F" stroke-width="5.12" stroke-linecap="round" stroke-linejoin="round" points="78.6835456 157.608938 78.6835456 102.134762 120.731034 135.454698 108.717466 140.99249 120.731034 166.757354 105.71305 174.224362 93.7005056 149.301226"></polygon>
            <g id="Group-20" transform="translate(37.968486, 45.100420)">
                <line x1="0" y1="16.06656" x2="30.324736" y2="0" id="Fill-17" fill="#FFFFFF"></line>
                <line x1="0" y1="16.06656" x2="30.324736" y2="0" id="Stroke-19" stroke="#152E5F" stroke-width="5.12" stroke-linecap="round" stroke-linejoin="round"></line>
            </g>
            <g id="Group-24" transform="translate(77.878477, 82.655620)">
                <line x1="0.512" y1="9.913344" x2="0.512" y2="0" id="Fill-21" fill="#FFFFFF"></line>
                <line x1="0.512" y1="9.913344" x2="0.512" y2="0" id="Stroke-23" stroke="#152E5F" stroke-width="5.12" stroke-linecap="round" stroke-linejoin="round"></line>
            </g>
            <g id="Group-28" transform="translate(92.578509, 89.063607)">
                <line x1="0" y1="7.010304" x2="7.602176" y2="0" id="Fill-25" fill="#FFFFFF"></line>
                <line x1="0" y1="7.010304" x2="7.602176" y2="0" id="Stroke-27" stroke="#152E5F" stroke-width="5.12" stroke-linecap="round" stroke-linejoin="round"></line>
            </g>
            <g id="Group-32" transform="translate(60.080538, 89.063914)">
                <line x1="0" y1="0" x2="7.602176" y2="7.010304" id="Fill-29" fill="#FFFFFF"></line>
                <line x1="0" y1="0" x2="7.602176" y2="7.010304" id="Stroke-31" stroke="#152E5F" stroke-width="5.12" stroke-linecap="round" stroke-linejoin="round"></line>
            </g>
            <g id="Group-36" transform="translate(53.130547, 105.636944)">
                <line x1="0" y1="0.512" x2="10.752" y2="0.512" id="Fill-33" fill="#FFFFFF"></line>
                <line x1="0" y1="0.512" x2="10.752" y2="0.512" id="Stroke-35" stroke="#152E5F" stroke-width="5.12" stroke-linecap="round" stroke-linejoin="round"></line>
            </g>
            <path d="M19.3019904,71.7849379 C19.0726144,72.4075299 18.4193024,72.7659299 17.8427904,72.5857059 C17.2662784,72.4054819 16.9846784,71.7552419 17.2140544,71.1316259 C17.4434304,70.5090339 18.0967424,70.1496099 18.6732544,70.3308579 C19.2497664,70.5110819 19.5313664,71.1623459 19.3019904,71.7849379" id="Fill-37" fill="#FFFFFF"></path>
            <path d="M19.3019904,71.7849379 C19.0726144,72.4075299 18.4193024,72.7659299 17.8427904,72.5857059 C17.2662784,72.4054819 16.9846784,71.7552419 17.2140544,71.1316259 C17.4434304,70.5090339 18.0967424,70.1496099 18.6732544,70.3308579 C19.2497664,70.5110819 19.5313664,71.1623459 19.3019904,71.7849379 Z" id="Stroke-39" stroke="#152E5F" stroke-width="5.12" stroke-linecap="round" stroke-linejoin="round"></path>
            <g id="Group-44" transform="translate(17.621402, 71.400836)">
                <line x1="0.090112" y1="0.283136" x2="0.933888" y2="0.740864" id="Fill-41" fill="#FFFFFF"></line>
                <line x1="0.090112" y1="0.283136" x2="0.933888" y2="0.740864" id="Stroke-43" stroke="#152E5F" stroke-width="5.12" stroke-linecap="round" stroke-linejoin="round"></line>
            </g>
            <g id="Group-47" transform="translate(0.000000, 176.016055)">
                <mask id="mask-2" fill="white">
                    <use xlink:href="#path-1"></use>
                </mask>
                <g id="Clip-46"></g>
                <path d="" id="Fill-45" fill="#FFFFFF" mask="url(#mask-2)"></path>
            </g>
            <line x1="28.7930368" y1="65.9980067" x2="28.7930368" y2="65.9980067" id="Stroke-48" stroke="#152E5F" stroke-width="5.12" stroke-linecap="round" stroke-linejoin="round"></line>
            <g id="Group-53" transform="translate(28.389376, 65.426820)">
                <line x1="0.090112" y1="0.283136" x2="0.933888" y2="0.740864" id="Fill-50" fill="#FFFFFF"></line>
                <line x1="0.090112" y1="0.283136" x2="0.933888" y2="0.740864" id="Stroke-52" stroke="#152E5F" stroke-width="5.12" stroke-linecap="round" stroke-linejoin="round"></line>
            </g>
        </g>
    </g>
</svg>