<?xml version="1.0" encoding="UTF-8"?>
<svg width="256px" height="111px" viewBox="0 0 256 111" version="1.1" xmlns="http://www.w3.org/2000/svg" xmlns:xlink="http://www.w3.org/1999/xlink">
    <title>Logo/Full/bdt-logo-white</title>
    <g id="Logo/Full/bdt-logo-white" stroke="none" stroke-width="1" fill="none" fill-rule="evenodd">
        <path d="M0,100.234793 L4.49893491,100.234793 C6.32047337,100.234793 7.55124261,100.848284 7.55124261,102.696331 C7.55124261,103.669586 7.0816568,104.351242 6.2523077,104.767811 C7.41869822,105.116213 8.00568047,106.047811 8.00568047,107.286154 C8.00568047,109.304615 6.35834319,110.16426 4.63147929,110.16426 L0,110.16426 L0,100.234793 Z M2.10177515,104.256568 L4.23005917,104.256568 C4.96473373,104.256568 5.51384615,103.908166 5.51384615,103.07503 C5.51384615,102.128284 4.81704142,101.935148 4.06721894,101.935148 L2.09798817,101.935148 L2.09798817,104.256568 L2.10177515,104.256568 Z M2.10177515,108.471479 L4.35124261,108.471479 C5.18059172,108.471479 5.90390533,108.191242 5.90390533,107.16497 C5.90390533,106.150059 5.28662722,105.744852 4.39289942,105.744852 L2.10556214,105.744852 L2.10556214,108.471479 L2.10177515,108.471479 Z" id="Shape" fill="#FFFFFF" fill-rule="nonzero"></path>
        <polygon id="Path" fill="#FFFFFF" fill-rule="nonzero" points="15.3145563 100.234793 22.4643787 100.234793 22.4643787 102.071479 17.4163314 102.071479 17.4163314 104.199763 22.0478107 104.199763 22.0478107 105.896331 17.4163314 105.896331 17.4163314 108.331361 22.5704142 108.331361 22.5704142 110.168047 15.3145563 110.168047"></polygon>
        <polygon id="Path" fill="#FFFFFF" fill-rule="nonzero" points="29.8755029 100.234793 31.9621301 100.234793 35.9498224 106.899882 35.9763314 106.899882 35.9763314 100.234793 37.9455621 100.234793 37.9455621 110.168047 35.843787 110.168047 31.8674556 103.518106 31.8409468 103.518106 31.8409468 110.168047 29.8717159 110.168047 29.8717159 100.234793"></polygon>
        <polygon id="Path" fill="#FFFFFF" fill-rule="nonzero" points="45.6823668 100.234793 52.8321894 100.234793 52.8321894 102.071479 47.7841421 102.071479 47.7841421 104.199763 52.4156213 104.199763 52.4156213 105.896331 47.7841421 105.896331 47.7841421 108.331361 52.9382249 108.331361 52.9382249 110.168047 45.6823668 110.168047"></polygon>
        <polygon id="Path" fill="#FFFFFF" fill-rule="nonzero" points="60.2471006 100.234793 66.9652071 100.234793 66.9652071 102.071479 62.3488757 102.071479 62.3488757 104.366391 66.3517159 104.366391 66.3517159 106.062958 62.3488757 106.062958 62.3488757 110.168047 60.2471006 110.168047"></polygon>
        <polygon id="Path" fill="#FFFFFF" fill-rule="nonzero" points="75.6525444 100.234793 77.7543196 100.234793 77.7543196 110.168047 75.6525444 110.168047"></polygon>
        <polygon id="Path" fill="#FFFFFF" fill-rule="nonzero" points="87.8731361 102.071479 85.0101775 102.071479 85.0101775 100.234793 92.8416568 100.234793 92.8416568 102.071479 89.9786982 102.071479 89.9786982 110.168047 87.8769231 110.168047 87.8769231 102.071479"></polygon>
        <path d="M101.256331,106.873373 C101.256331,108.19503 102.248521,108.710059 103.373254,108.710059 C104.107929,108.710059 105.232663,108.486627 105.232663,107.471716 C105.232663,106.4 103.801183,106.218225 102.396213,105.828166 C100.976095,105.438106 99.5446154,104.866272 99.5446154,103.003077 C99.5446154,100.969467 101.392663,100 103.119527,100 C105.115266,100 106.948166,100.901302 106.948166,103.2 L104.914556,103.2 C104.84639,102.003314 104.032189,101.696568 103.028639,101.696568 C102.358343,101.696568 101.582012,101.988166 101.582012,102.825089 C101.582012,103.590059 102.03645,103.688521 104.433609,104.328521 C105.130414,104.510296 107.270059,104.968521 107.270059,107.221775 C107.270059,109.043314 105.891598,110.406627 103.293728,110.406627 C101.176805,110.406627 99.196213,109.32355 99.2227219,106.873373 L101.256331,106.873373 L101.256331,106.873373 Z" id="Path" fill="#FFFFFF" fill-rule="nonzero"></path>
        <path d="M122.137752,100.234793 L126.261775,100.234793 C128.738462,100.234793 130.59787,101.848047 130.59787,105.146509 C130.59787,108.024615 129.177751,110.168047 126.261775,110.168047 L122.137752,110.168047 L122.137752,100.234793 Z M124.239527,108.331361 L126.114083,108.331361 C127.333491,108.331361 128.496095,107.551242 128.496095,105.354793 C128.496095,103.351479 127.825799,102.071479 125.739172,102.071479 L124.239527,102.071479 L124.239527,108.331361 L124.239527,108.331361 Z" id="Shape" fill="#FFFFFF" fill-rule="nonzero"></path>
        <path d="M140.553846,100.234793 L142.708639,100.234793 L146.28355,110.168047 L144.102248,110.168047 L143.378935,107.95645 L139.804023,107.95645 L139.054201,110.168047 L136.925918,110.168047 L140.553846,100.234793 Z M140.353136,106.328047 L142.829823,106.328047 L141.625562,102.681183 L141.599053,102.681183 L140.353136,106.328047 Z" id="Shape" fill="#FFFFFF" fill-rule="nonzero"></path>
        <polygon id="Path" fill="#FFFFFF" fill-rule="nonzero" points="154.12639 102.071479 151.263432 102.071479 151.263432 100.234793 159.094911 100.234793 159.094911 102.071479 156.231953 102.071479 156.231953 110.168047 154.130178 110.168047 154.130178 102.071479"></polygon>
        <path d="M167.698935,100.234793 L169.853728,100.234793 L173.428639,110.168047 L171.247337,110.168047 L170.524023,107.95645 L166.949113,107.95645 L166.19929,110.168047 L164.071006,110.168047 L167.698935,100.234793 Z M167.498225,106.328047 L169.974911,106.328047 L168.770651,102.681183 L168.744142,102.681183 L167.498225,106.328047 Z" id="Shape" fill="#FFFFFF" fill-rule="nonzero"></path>
        <polygon id="Path" fill="#FFFFFF" fill-rule="nonzero" points="189.731597 102.071479 186.868639 102.071479 186.868639 100.234793 194.700118 100.234793 194.700118 102.071479 191.833372 102.071479 191.833372 110.168047 189.731597 110.168047"></polygon>
        <path d="M202.217278,100.234793 L207.371362,100.234793 C209.086864,100.234793 210.169941,101.473136 210.169941,102.976568 C210.169941,104.142958 209.715504,105.021538 208.658935,105.464615 L208.658935,105.491124 C209.688994,105.767574 209.984379,106.812781 210.052544,107.812544 C210.094201,108.441183 210.079053,109.607574 210.453965,110.16426 L208.35219,110.16426 C208.098462,109.539408 208.12497,108.577515 208.015148,107.786035 C207.867456,106.744615 207.481183,106.282604 206.424616,106.282604 L204.322841,106.282604 L204.322841,110.16426 L202.221065,110.16426 L202.221065,100.234793 L202.217278,100.234793 Z M204.319053,104.729941 L206.621539,104.729941 C207.556923,104.729941 208.068165,104.313373 208.068165,103.309822 C208.068165,102.347929 207.560711,101.931361 206.621539,101.931361 L204.319053,101.931361 L204.319053,104.729941 Z" id="Shape" fill="#FFFFFF" fill-rule="nonzero"></path>
        <path d="M225.88213,106.411361 C225.88213,109.096331 224.355976,110.40284 221.799763,110.40284 C219.228402,110.40284 217.728758,109.107692 217.728758,106.411361 L217.728758,100.234793 L219.830532,100.234793 L219.830532,106.411361 C219.830532,107.494438 220.099409,108.566154 221.799763,108.566154 C223.299409,108.566154 223.780355,107.884497 223.780355,106.411361 L223.780355,100.234793 L225.88213,100.234793 L225.88213,106.411361 Z" id="Path" fill="#FFFFFF" fill-rule="nonzero"></path>
        <path d="M235.012544,106.873373 C235.012544,108.19503 236.004734,108.710059 237.125681,108.710059 C237.860355,108.710059 238.985088,108.486627 238.985088,107.471716 C238.985088,106.4 237.553609,106.218225 236.148639,105.828166 C234.728521,105.438106 233.297041,104.866272 233.297041,103.003077 C233.297041,100.969467 235.145088,100 236.871953,100 C238.867692,100 240.700592,100.901302 240.700592,103.2 L238.666983,103.2 C238.598816,102.003314 237.784616,101.696568 236.781065,101.696568 C236.110769,101.696568 235.334437,101.988166 235.334437,102.825089 C235.334437,103.590059 235.788876,103.688521 238.186035,104.328521 C238.882841,104.510296 241.022485,104.968521 241.022485,107.221775 C241.022485,109.043314 239.644023,110.406627 237.046154,110.406627 C234.933018,110.406627 232.948639,109.32355 232.975148,106.873373 L235.012544,106.873373 L235.012544,106.873373 Z" id="Path" fill="#FFFFFF" fill-rule="nonzero"></path>
        <polygon id="Path" fill="#FFFFFF" fill-rule="nonzero" points="250.270295 102.071479 247.407337 102.071479 247.407337 100.234793 255.238816 100.234793 255.238816 102.071479 252.375858 102.071479 252.375858 110.168047 250.274083 110.168047 250.274083 102.071479"></polygon>
        <path d="M74.268657,12.8 C77.033154,15.564497 81.3616747,15.564497 84.1261717,12.8 C86.7694852,10.1566864 86.8906687,5.70698224 84.1261717,2.94248521 C81.3616747,0.177988165 76.9157575,0.299171597 74.268657,2.94248521 C71.5041598,5.71076923 71.5041598,10.035503 74.268657,12.8 L74.268657,12.8 Z" id="Path" fill="#FFFFFF" fill-rule="nonzero"></path>
        <path d="M46.8660533,7.99431952 C63.9339824,9.67952663 77.5141007,23.2596449 79.1993078,40.327574 C83.8875919,33.715503 84.9668817,25.1834319 81.8426214,17.7306509 C78.3585977,18.8137278 74.5110238,17.8518344 71.8677101,15.2047337 C69.341793,12.6826035 68.3798994,8.83502959 69.341793,5.22982249 C61.7678285,2.22295858 53.3569409,3.18485207 46.8660533,7.99431952 L46.8660533,7.99431952 Z" id="Path" fill="#FFFFFF" fill-rule="nonzero"></path>
        <path d="M7.08001783,40.327574 C8.76143796,23.2596449 22.3453433,9.67952663 39.4132722,7.99431952 C32.8012012,3.3060355 24.2691303,2.22674556 16.8163492,5.35100591 C17.8994261,8.83502959 16.9375326,12.6826035 14.2904321,15.3259172 C11.7683019,17.8480474 7.9207279,18.8099409 4.3155208,17.8480474 C1.30865689,25.4220118 2.27055038,33.8366863 7.08001783,40.327574 L7.08001783,40.327574 Z" id="Path" fill="#FFFFFF" fill-rule="nonzero"></path>
        <path d="M11.8856983,12.9211834 C14.6501954,10.1566864 14.6501954,5.82816568 11.8856983,3.06366864 C9.24238471,0.42035503 4.79268055,0.299171597 2.02818352,3.06366864 C-0.736313524,5.82816568 -0.615130092,10.2740828 2.02818352,12.9211834 C4.79646754,15.6856805 9.12120127,15.6856805 11.8856983,12.9211834 L11.8856983,12.9211834 Z" id="Path" fill="#FFFFFF" fill-rule="nonzero"></path>
        <path d="M58.7647515,28.5462721 C67.2968226,37.0821302 67.2968226,51.0220118 58.6435682,59.6790532 C50.1114971,68.2111242 36.1678285,68.2111242 27.514574,59.5578698 C18.9787161,51.0257988 18.9787161,37.0821302 27.6357575,28.4288758 C36.1678285,19.8930177 50.1114971,19.8930177 58.7647515,28.5462721 L58.7647515,28.5462721 Z M65.1344557,65.927574 C77.1543373,53.9076923 77.1543373,34.1964497 65.1344557,22.1765681 C52.9933906,10.035503 33.282148,10.035503 21.2622663,22.0553846 C9.12120127,34.1964497 9.12120127,53.9076923 21.1410829,65.927574 C33.282148,78.0686391 52.9933906,78.0686391 65.1344557,65.927574 L65.1344557,65.927574 Z" id="Shape" fill="#FFFFFF" fill-rule="nonzero"></path>
        <path d="M79.1993078,47.7803551 C77.5141007,64.848284 63.9339824,78.4321893 46.8660533,80.1136095 C53.4743373,84.8018935 62.0101954,85.8849704 69.4629764,82.756923 C68.3798994,79.2691125 69.341793,75.4253255 71.9888936,72.7820118 C74.5110238,70.2598816 78.3585977,69.2942012 81.9638049,70.2598816 C84.9668817,62.6821302 84.0049882,54.2674556 79.1993078,47.7803551 L79.1993078,47.7803551 Z" id="Path" fill="#FFFFFF" fill-rule="nonzero"></path>
        <path d="M74.3898403,75.1829586 C71.6253433,77.9474556 71.6253433,82.2759763 74.3898403,85.0404734 C77.033154,87.683787 81.482858,87.8049704 84.2473551,85.0404734 C87.0118522,82.2759763 86.8906687,77.8262721 84.2473551,75.1829586 C81.482858,72.4184616 77.1543373,72.4184616 74.3898403,75.1829586 L74.3898403,75.1829586 Z" id="Path" fill="#FFFFFF" fill-rule="nonzero"></path>
        <path d="M39.4132722,80.1098225 C22.3453433,78.4284023 8.76143796,64.844497 7.08001783,47.7765681 C2.39173381,54.3886391 1.31244387,62.92071 4.43670423,70.3734911 C7.9207279,69.2904142 11.7683019,70.2523077 14.4116154,72.8956213 C16.9375326,75.4215384 17.8956391,79.2653255 16.9337456,82.8743195 C24.5077101,85.8811834 32.9223847,84.91929 39.4132722,80.1098225 L39.4132722,80.1098225 Z" id="Path" fill="#FFFFFF" fill-rule="nonzero"></path>
        <path d="M12.0068817,85.1578698 C14.7713787,82.3933728 14.7713787,78.0648521 12.0068817,75.304142 C9.24238471,72.5396449 4.91386399,72.5396449 2.14936695,75.304142 C-0.493946659,77.9474556 -0.615130092,82.3971598 2.14936695,85.1578698 C4.91386399,87.9261539 9.36356813,87.8049704 12.0068817,85.1578698 L12.0068817,85.1578698 Z" id="Path" fill="#FFFFFF" fill-rule="nonzero"></path>
        <path d="M25.8672368,44.0539646 C25.8672368,34.5145562 33.6002545,26.7853255 43.1396628,26.7815384 L43.1396628,26.7815384 C52.679071,26.7815384 60.4083019,34.5145562 60.4120889,44.0539646 L60.4120889,44.0539646 C60.4120889,53.5933728 52.679071,61.3226035 43.1396628,61.3226035 L43.1396628,61.3226035 C33.5964675,61.3226035 25.8672368,53.5933728 25.8672368,44.0539646 L25.8672368,44.0539646 Z M29.9306687,44.0539646 C29.9420296,51.3476923 35.845935,57.2478107 43.1396628,57.2629586 L43.1396628,57.2629586 C50.4333906,57.2515976 56.3335089,51.3476923 56.348657,44.0539646 L56.348657,44.0539646 C56.3335089,36.7602367 50.4333906,30.8563314 43.1396628,30.8449704 L43.1396628,30.8449704 C35.842148,30.8563314 29.9420296,36.7564497 29.9306687,44.0539646 L29.9306687,44.0539646 Z" id="Shape" fill="#FFFFFF" fill-rule="nonzero"></path>
        <path d="M167.807118,51.7415384 C167.644278,49.7988165 167.489011,47.8636686 167.155757,46.083787 C165.67126,36.2073372 159.23339,27.7850888 149.993153,23.7368047 C140.58629,19.5256805 129.857769,20.4989349 121.443095,26.0052071 L121.443095,8.9372781 C121.443095,8.9372781 121.86345,0.0946745562 110.767592,0.0946745562 C108.275757,0.0946745562 105.431734,0.0946745562 105.431734,0.0946745562 L105.431734,82.99929 C115.497533,85.5895858 125.729959,86.7218935 135.962385,86.2371598 C143.555285,85.9114793 150.981557,82.99929 156.590078,78.1405918 C152.958361,73.9294674 150.155994,69.0707693 148.66771,63.8901775 C148.008776,65.0224853 147.183213,66.1585799 146.357651,67.1280474 C140.415876,74.4142012 130.350078,77.1673372 121.439308,73.7666272 L121.439308,36.036923 C125.729959,32.636213 131.175639,31.3410651 136.62132,32.3143195 C141.90416,33.4466272 146.524278,36.8473372 149.000964,41.7060355 C150.485462,44.7810651 151.352681,48.196923 151.477651,51.7453255 C151.50416,52.5519527 151.477651,53.2033135 151.477651,54.0099409 C151.644278,61.9436686 154.613273,69.555503 160.058953,75.5465089 C166.167355,82.0260355 174.58203,85.9076923 183.492799,86.2333728 C193.725225,86.7181065 203.957651,85.5857988 214.02345,82.995503 L214.02345,0.0946745562 C214.02345,0.0946745562 209.838834,0.0946745562 207.53635,0.0946745562 C197.603095,0.0946745562 198.015876,9.50532544 198.015876,9.50532544 L198.015876,26.0014202 C187.287355,18.8781065 172.930906,19.6847337 162.865106,27.6222485 C166.496822,31.6705325 169.13635,36.3663905 170.620846,41.387929 C173.097532,36.8549112 177.551024,33.4542012 182.833864,32.3181065 C188.279545,31.3486391 193.725225,32.643787 198.019662,36.04071 L198.019662,73.7704142 C189.108894,77.1711242 179.039308,74.4179881 173.10132,67.1318344 C170.132325,63.4092307 168.246408,58.7171598 167.985106,54.0137278 C167.928302,53.1048521 167.807118,51.7415384 167.807118,51.7415384 Z" id="Path" fill="#FFFFFF" fill-rule="nonzero"></path>
        <path d="M219.287334,21.0139646 L219.287334,9.58106509 C219.287334,9.58106509 219.21919,0 229.856822,0 C231.087592,0 234.772325,0 234.772325,0 L234.772325,21.0101775 L255.62345,21.0101775 L255.62345,26.7739646 C255.62345,26.7739646 255.267473,32.4960947 246.004515,32.4960947 C242.319781,32.4960947 234.772325,32.4960947 234.772325,32.4960947 L234.772325,62.5268639 C234.772325,64.6778698 235.139662,67.1507693 235.87055,69.9455621 C236.601438,72.7365681 239.566645,74.1339646 244.769959,74.1339646 C248.265343,74.1339646 251.881911,73.0168047 255.62345,70.7824853 L255.62345,83.2454439 L251.855402,84.4345562 L246.02345,85.6236686 L240.312681,86.0970414 C235.772089,86.0970414 231.360255,85.0215384 227.065817,82.8743195 C224.471734,81.2004734 222.487345,79.0570414 221.112681,76.4288758 C219.897059,73.80071 219.287334,70.2182249 219.287334,65.6852071 L219.287334,32.4998816 L219.287334,21.0139646 L219.287334,21.0139646 Z" id="Path" fill="#FFFFFF" fill-rule="nonzero"></path>
    </g>
</svg>