<?xml version="1.0" encoding="UTF-8"?>
<svg width="256px" height="256px" viewBox="0 0 256 256" version="1.1" xmlns="http://www.w3.org/2000/svg" xmlns:xlink="http://www.w3.org/1999/xlink">
    <title>Icon/02 Isometric/Benefits/Healthcare</title>
    <g id="Icon/02-Isometric/Benefits/Healthcare" stroke="none" stroke-width="1" fill="none" fill-rule="evenodd">
        <g id="Group-55" transform="translate(43.008000, 12.288000)">
            <path d="M102.535475,150.229504 L102.535475,163.932672 C102.535475,168.211968 106.055987,171.651584 110.333235,171.552256 L146.567475,170.709504 C158.773555,169.412096 169.133363,179.080704 169.095579,190.165504 C169.059635,200.490496 160.011571,209.683968 148.615475,209.621504 C132.914483,209.962496 117.212467,210.304512 101.511475,210.645504" id="Stroke-1" stroke="#152E5F" stroke-width="5.12"></path>
            <path d="M71.6899328,16.213504 L49.8490368,16.213504 C45.1816448,16.213504 41.3969408,19.997184 41.3969408,24.664576 L41.3969408,81.873408 C41.3969408,115.312128 68.7561728,142.67136 102.194893,142.67136 C135.633613,142.67136 162.992845,115.312128 162.992845,81.873408 L162.992845,24.664576 C162.992845,19.997184 159.209165,16.213504 154.541773,16.213504 L134.798029,16.213504" id="Stroke-3" stroke="#152E5F" stroke-width="5.12"></path>
            <path d="M66.4689664,32.425984 L68.2066944,32.425984 C71.2950784,32.425984 73.8233344,29.898752 73.8233344,26.809344 L73.8233344,5.61664 C73.8233344,2.528256 71.2950784,0 68.2066944,0 L66.4689664,0 C63.3795584,0 60.8533504,2.528256 60.8533504,5.61664 L60.8533504,26.809344 C60.8533504,29.898752 63.3795584,32.425984 66.4689664,32.425984" id="Fill-5" fill="#FFFFFF"></path>
            <path d="M66.4689664,32.425984 L68.2066944,32.425984 C71.2950784,32.425984 73.8233344,29.898752 73.8233344,26.809344 L73.8233344,5.61664 C73.8233344,2.528256 71.2950784,0 68.2066944,0 L66.4689664,0 C63.3795584,0 60.8533504,2.528256 60.8533504,5.61664 L60.8533504,26.809344 C60.8533504,29.898752 63.3795584,32.425984 66.4689664,32.425984 Z" id="Stroke-7" stroke="#152E5F" stroke-width="5.12"></path>
            <path d="M140.23639,33.23648 L141.974118,33.23648 C145.062502,33.23648 147.590758,30.709248 147.590758,27.620864 L147.590758,6.427136 C147.590758,3.338752 145.062502,0.81152 141.974118,0.81152 L140.23639,0.81152 C137.146982,0.81152 134.620774,3.338752 134.620774,6.427136 L134.620774,27.620864 C134.620774,30.709248 137.146982,33.23648 140.23639,33.23648" id="Fill-9" fill="#FFFFFF"></path>
            <path d="M140.23639,33.23648 L141.974118,33.23648 C145.062502,33.23648 147.590758,30.709248 147.590758,27.620864 L147.590758,6.427136 C147.590758,3.338752 145.062502,0.81152 141.974118,0.81152 L140.23639,0.81152 C137.146982,0.81152 134.620774,3.338752 134.620774,6.427136 L134.620774,27.620864 C134.620774,30.709248 137.146982,33.23648 140.23639,33.23648 Z" id="Stroke-11" stroke="#152E5F" stroke-width="5.12"></path>
            <path d="M101.880422,150.741504 L101.880422,150.741504 C130.901606,150.741504 155.685478,133.39904 164.434534,111.088128 C165.925478,107.284992 163.922534,103.00672 160.043622,101.729792 L159.981158,101.709312 C156.650086,100.612608 153.032294,102.121984 151.442022,105.247232 C142.247526,123.323904 123.450982,135.783936 101.880422,135.783936 C80.0856064,135.783936 61.1211264,123.065856 52.0321024,104.685056 C50.5595904,101.707264 47.1957504,100.176384 43.9732224,100.986368 C39.8721024,102.016512 37.5578624,106.386944 39.0375424,110.346752 C47.5193344,133.047808 72.5346304,150.741504 101.880422,150.741504" id="Fill-13" fill="#FFFFFF"></path>
            <path d="M101.880422,150.741504 L101.880422,150.741504 C130.901606,150.741504 155.685478,133.39904 164.434534,111.088128 C165.925478,107.284992 163.922534,103.00672 160.043622,101.729792 L159.981158,101.709312 C156.650086,100.612608 153.032294,102.121984 151.442022,105.247232 C142.247526,123.323904 123.450982,135.783936 101.880422,135.783936 C80.0856064,135.783936 61.1211264,123.065856 52.0321024,104.685056 C50.5595904,101.707264 47.1957504,100.176384 43.9732224,100.986368 C39.8721024,102.016512 37.5578624,106.386944 39.0375424,110.346752 C47.5193344,133.047808 72.5346304,150.741504 101.880422,150.741504 Z" id="Stroke-15" stroke="#152E5F" stroke-width="5.12"></path>
            <path d="M67.7424128,129.783501 L67.7424128,128.501453 C67.7424128,115.219149 52.5800448,104.452813 33.8797568,104.452813 C15.1784448,104.452813 0.0242688,115.219149 0.0242688,128.501453 L0.0242688,129.783501 L0.0242688,187.113165 C0.3150848,200.215245 15.3515008,210.777805 33.8398208,210.777805 C52.5411328,210.777805 67.7035008,200.010445 67.7035008,186.728141 L67.7035008,185.941709 L67.7424128,129.783501 Z" id="Fill-17" fill="#FFFFFF"></path>
            <path d="M67.7424128,129.783501 L67.7424128,128.501453 C67.7424128,115.219149 52.5800448,104.452813 33.8797568,104.452813 C15.1784448,104.452813 0.0242688,115.219149 0.0242688,128.501453 L0.0242688,129.783501 L0.0242688,187.113165 C0.3150848,200.215245 15.3515008,210.777805 33.8398208,210.777805 C52.5411328,210.777805 67.7035008,200.010445 67.7035008,186.728141 L67.7035008,185.941709 L67.7424128,129.783501 Z" id="Stroke-19" stroke="#152E5F" stroke-width="5.12"></path>
            <path d="M58.0069376,91.1625216 L55.7971456,91.2956416 C51.9510016,85.4526976 43.6074496,85.5478347 33.9265536,85.5478347 C24.2456576,85.5478347 15.9021056,85.4526976 12.0559616,91.2956416 L9.8379776,91.1625216 L9.7918976,102.518682 L9.7918976,102.691738 C9.7918976,112.128922 20.5971456,119.835546 33.9265536,119.835546 C47.2559616,119.835546 58.0069376,112.159642 58.0069376,102.691738 L58.0069376,102.518682 L58.0069376,91.1625216 Z" id="Fill-21" fill="#FFFFFF"></path>
            <path d="M58.0069376,91.1625216 L55.7971456,91.2956416 C51.9510016,85.4526976 43.6074496,85.5478347 33.9265536,85.5478347 C24.2456576,85.5478347 15.9021056,85.4526976 12.0559616,91.2956416 L9.8379776,91.1625216 L9.7918976,102.518682 L9.7918976,102.691738 C9.7918976,112.128922 20.5971456,119.835546 33.9265536,119.835546 C47.2559616,119.835546 58.0069376,112.159642 58.0069376,102.691738 L58.0069376,102.518682 L58.0069376,91.1625216 Z" id="Stroke-23" stroke="#152E5F" stroke-width="5.12"></path>
            <path d="M33.8874368,72.917504 C47.2168448,72.917504 58.0220928,80.593408 58.0220928,90.061312 C58.0220928,99.53024 47.2168448,107.20512 33.8874368,107.20512 C20.5570048,107.20512 9.7517568,99.53024 9.7517568,90.061312 C9.7517568,80.593408 20.5570048,72.917504 33.8874368,72.917504" id="Fill-25" fill="#FFFFFF"></path>
            <path d="M33.8874368,72.917504 C47.2168448,72.917504 58.0220928,80.593408 58.0220928,90.061312 C58.0220928,99.53024 47.2168448,107.20512 33.8874368,107.20512 C20.5570048,107.20512 9.7517568,99.53024 9.7517568,90.061312 C9.7517568,80.593408 20.5570048,72.917504 33.8874368,72.917504 Z" id="Stroke-27" stroke="#152E5F" stroke-width="5.12"></path>
            <path d="M67.710976,165.101466 L67.710976,165.101466 L67.710976,132.291482 L67.710976,130.49129 C65.847296,136.279962 60.192768,143.074202 53.62688,146.448282 C41.135104,152.49705 26.561536,152.49705 14.06976,146.448282 C7.51104,143.082394 1.856512,137.404314 0,131.608474 L0,165.101466 L0,165.966746 C0,179.24905 15.162368,190.015386 33.855488,190.015386 C52.548608,190.015386 67.74272,179.24905 67.74272,165.958554 C67.74272,165.67593 67.72736,165.385114 67.710976,165.101466" id="Fill-29" fill="#FFFFFF"></path>
            <path d="M67.710976,165.101466 L67.710976,165.101466 L67.710976,132.291482 L67.710976,130.49129 C65.847296,136.279962 60.192768,143.074202 53.62688,146.448282 C41.135104,152.49705 26.561536,152.49705 14.06976,146.448282 C7.51104,143.082394 1.856512,137.404314 0,131.608474 L0,165.101466 L0,165.966746 C0,179.24905 15.162368,190.015386 33.855488,190.015386 C52.548608,190.015386 67.74272,179.24905 67.74272,165.958554 C67.74272,165.67593 67.72736,165.385114 67.710976,165.101466 Z" id="Stroke-31" stroke="#152E5F" stroke-width="5.12" stroke-linejoin="round"></path>
            <line x1="34.0759552" y1="119.42656" x2="34.0759552" y2="115.655168" id="Stroke-33" stroke="#152E5F" stroke-width="5.12" stroke-linecap="round" stroke-linejoin="round"></line>
            <line x1="24.937984" y1="117.758976" x2="24.937984" y2="113.995776" id="Stroke-35" stroke="#152E5F" stroke-width="5.12" stroke-linecap="round" stroke-linejoin="round"></line>
            <line x1="43.2139264" y1="117.758976" x2="43.2139264" y2="113.995776" id="Stroke-37" stroke="#152E5F" stroke-width="5.12" stroke-linecap="round" stroke-linejoin="round"></line>
            <line x1="16.6329344" y1="113.606963" x2="16.6329344" y2="109.842739" id="Stroke-39" stroke="#152E5F" stroke-width="5.12" stroke-linecap="round" stroke-linejoin="round"></line>
            <line x1="51.518976" y1="113.606963" x2="51.518976" y2="109.842739" id="Stroke-41" stroke="#152E5F" stroke-width="5.12" stroke-linecap="round" stroke-linejoin="round"></line>
            <polygon id="Fill-43" fill="#FFFFFF" points="45.6994816 165.306061 38.8499456 165.306061 38.8499456 158.456525 29.7117696 158.456525 29.7117696 165.306061 22.8612096 165.306061 22.8612096 174.444237 29.7117696 174.444237 29.7117696 181.294797 38.8499456 181.294797 38.8499456 174.444237 45.6994816 174.444237"></polygon>
            <polygon id="Stroke-45" stroke="#152E5F" stroke-width="5.12" stroke-linejoin="round" points="45.6994816 165.306061 38.8499456 165.306061 38.8499456 158.456525 29.7117696 158.456525 29.7117696 165.306061 22.8612096 165.306061 22.8612096 174.444237 29.7117696 174.444237 29.7117696 181.294797 38.8499456 181.294797 38.8499456 174.444237 45.6994816 174.444237"></polygon>
            <path d="M100.999475,210.360525 C100.999475,222.533837 91.1311872,232.401101 78.9588992,232.401101 C66.7855872,232.401101 56.9172992,222.533837 56.9172992,210.360525 C56.9172992,198.188237 66.7855872,188.319949 78.9588992,188.319949 C91.1311872,188.319949 100.999475,198.188237 100.999475,210.360525" id="Fill-47" fill="#FFFFFF"></path>
            <path d="M100.999475,210.360525 C100.999475,222.533837 91.1311872,232.401101 78.9588992,232.401101 C66.7855872,232.401101 56.9172992,222.533837 56.9172992,210.360525 C56.9172992,198.188237 66.7855872,188.319949 78.9588992,188.319949 C91.1311872,188.319949 100.999475,198.188237 100.999475,210.360525 Z" id="Stroke-49" stroke="#152E5F" stroke-width="5.12"></path>
            <path d="M81.407488,210.360525 C81.407488,211.713229 80.310784,212.809933 78.95808,212.809933 C77.6064,212.809933 76.509696,211.713229 76.509696,210.360525 C76.509696,209.008845 77.6064,207.911117 78.95808,207.911117 C80.310784,207.911117 81.407488,209.008845 81.407488,210.360525" id="Fill-51" fill="#FFFFFF"></path>
            <path d="M81.407488,210.360525 C81.407488,211.713229 80.310784,212.809933 78.95808,212.809933 C77.6064,212.809933 76.509696,211.713229 76.509696,210.360525 C76.509696,209.008845 77.6064,207.911117 78.95808,207.911117 C80.310784,207.911117 81.407488,209.008845 81.407488,210.360525 Z" id="Stroke-53" stroke="#152E5F" stroke-width="5.12"></path>
        </g>
    </g>
</svg>