<svg width="64" height="64" viewBox="0 0 64 64" fill="none" xmlns="http://www.w3.org/2000/svg">
<path fill-rule="evenodd" clip-rule="evenodd" d="M26 4C38.1503 4 48 13.8497 48 26C48 30.6298 46.5699 34.9255 44.1273 38.4696L57.6274 51.9706C59.1895 53.5327 59.1895 56.0653 57.6274 57.6274C56.0653 59.1895 53.5327 59.1895 51.9706 57.6274L38.4696 44.1273C34.9255 46.5699 30.6298 48 26 48C13.8497 48 4 38.1503 4 26C4 13.8497 13.8497 4 26 4ZM26 12C18.268 12 12 18.268 12 26C12 33.732 18.268 40 26 40C33.732 40 40 33.732 40 26C40 18.268 33.732 12 26 12Z" fill="#4A5468"/>
</svg>
